# xmcd CD database file
#
# Track frame offsets:
#	150
#	12148
#	27365
#	43918
#	61145
#	75023
#	100835
#	119585
#	137645
#	150818
#	167653
#	185453
#
# Disc length: 2812 seconds
#
# Revision: 3
# Processed by: cddbd v1.5.2PL0 Copyright (c) Steve Scherf et al.
# Submitted via: CD2WAV32(JP) R3.22
#
DISCID=860afa0c
DTITLE=小野リサ - O MELHOR DE LISA
DYEAR=1991
DGENRE=Other
TTITLE0=MORCEGA ～南からの贈り物
TTITLE1=SACI PERERE
TTITLE2=PASSEIO NAS ESTRELAS 星の散歩
TTITLE3=CATUPIRY
TTITLE4=CHORO
TTITLE5=O AMOR, O CEU E O MAR 愛と空と海
TTITLE6=RIO DE JANEIRO
TTITLE7=CANTO PARA NANA
TTITLE8=A ABELHA E O ZANGAO ミツバチのサンバ
TTITLE9=PIQUENIQUE EM PAQUETA パケタ島でピクニック
TTITLE10=MAIRA
TTITLE11=ACALANTO DE AMOR
EXTD=
EXTT0=
EXTT1=
EXTT2=
EXTT3=
EXTT4=
EXTT5=
EXTT6=
EXTT7=
EXTT8=
EXTT9=
EXTT10=
EXTT11=
PLAYORDER=
